<?xml version="1.0" encoding="UTF-8" standalone="no"?>
<svg
   version="1.1"
   width="21.33601mm"
   height="8.1279993mm"
   viewBox="175.53 99.33 21.336011 8.1279994"
   id="svg286"
   sodipodi:docname="breadledpinout.svg"
   inkscape:export-filename="breadledpinoutfinal.png"
   inkscape:export-xdpi="3000"
   inkscape:export-ydpi="3000"
   inkscape:version="1.2.2 (b0a8486541, 2022-12-01)"
   xmlns:inkscape="http://www.inkscape.org/namespaces/inkscape"
   xmlns:sodipodi="http://sodipodi.sourceforge.net/DTD/sodipodi-0.dtd"
   xmlns="http://www.w3.org/2000/svg"
   xmlns:svg="http://www.w3.org/2000/svg"
   xmlns:rdf="http://www.w3.org/1999/02/22-rdf-syntax-ns#"
   xmlns:cc="http://creativecommons.org/ns#"
   xmlns:dc="http://purl.org/dc/elements/1.1/">
  <sodipodi:namedview
     id="namedview288"
     pagecolor="#505050"
     bordercolor="#eeeeee"
     borderopacity="1"
     inkscape:showpageshadow="0"
     inkscape:pageopacity="0"
     inkscape:pagecheckerboard="0"
     inkscape:deskcolor="#505050"
     inkscape:document-units="mm"
     showgrid="true"
     inkscape:zoom="14.633615"
     inkscape:cx="35.500456"
     inkscape:cy="15.033879"
     inkscape:window-width="2560"
     inkscape:window-height="1011"
     inkscape:window-x="0"
     inkscape:window-y="32"
     inkscape:window-maximized="1"
     inkscape:current-layer="svg286">
    <inkscape:grid
       type="xygrid"
       id="grid571"
       originx="4.5720123"
       units="in"
       spacingx="0.127"
       spacingy="0.127"
       originy="-0.76200074" />
  </sodipodi:namedview>
  <title
     id="title2">Picture generated by PcbDraw </title>
  <desc
     id="desc4">Picture generated by PcbDraw</desc>
  <defs
     id="defs86">
    <inkscape:path-effect
       effect="powermask"
       id="path-effect6028"
       is_visible="true"
       lpeversion="1"
       uri="#mask-powermask-path-effect6028"
       invert="false"
       hide_mask="false"
       background="false"
       background_color="#ffffffff" />
    <inkscape:path-effect
       effect="powerclip"
       id="path-effect6024"
       is_visible="true"
       lpeversion="1"
       inverse="true"
       flatten="false"
       hide_clip="false"
       message="Use fill-rule evenodd on &lt;b&gt;fill and stroke&lt;/b&gt; dialog if no flatten result after convert clip to paths." />
    <inkscape:path-effect
       effect="powermask"
       id="path-effect6014"
       is_visible="true"
       lpeversion="1"
       uri="#mask-powermask-path-effect6014"
       invert="false"
       hide_mask="false"
       background="false"
       background_color="#ffffffff" />
    <inkscape:path-effect
       effect="powerclip"
       id="path-effect5990"
       is_visible="true"
       lpeversion="1"
       inverse="true"
       flatten="false"
       hide_clip="false"
       message="Use fill-rule evenodd on &lt;b&gt;fill and stroke&lt;/b&gt; dialog if no flatten result after convert clip to paths." />
    <clipPath
       id="cut-off">
      <path
         d="m 176.53,100.33 h 10.16 v 7.62 h -10.16 v -7.62"
         style="fill-rule:evenodd"
         id="path6" />
    </clipPath>
    <mask
       id="pads-mask">
      <g
         style="fill:#ffffff;fill-opacity:0;stroke:#ffffff;stroke-width:0;stroke-linecap:round;stroke-linejoin:round;stroke-opacity:1"
         id="g35">
        <g
           style="fill:#ffffff;fill-opacity:1;stroke:#ffffff;stroke-width:0;stroke-linecap:round;stroke-linejoin:round;stroke-opacity:1"
           id="g17">
          <path
             style="fill:#ffffff;fill-opacity:1;fill-rule:evenodd;stroke:#ffffff;stroke-width:0;stroke-linecap:round;stroke-linejoin:round;stroke-opacity:1"
             d="m 183.71,102.44 h -1 v -1.5 h 1 z"
             id="path9" />
          <path
             style="fill:#ffffff;fill-opacity:1;fill-rule:evenodd;stroke:#ffffff;stroke-width:0;stroke-linecap:round;stroke-linejoin:round;stroke-opacity:1"
             d="m 180.51,102.44 h -1 v -1.5 h 1 z"
             id="path11" />
          <path
             style="fill:#ffffff;fill-opacity:1;fill-rule:evenodd;stroke:#ffffff;stroke-width:0;stroke-linecap:round;stroke-linejoin:round;stroke-opacity:1"
             d="m 183.71,107.34 h -1 v -1.5 h 1 z"
             id="path13" />
          <path
             style="fill:#ffffff;fill-opacity:1;fill-rule:evenodd;stroke:#ffffff;stroke-width:0;stroke-linecap:round;stroke-linejoin:round;stroke-opacity:1"
             d="m 180.51,107.34 h -1 v -1.5 h 1 z"
             id="path15" />
        </g>
        <g
           style="fill:#ffffff;fill-opacity:1;stroke:#ffffff;stroke-width:0;stroke-linecap:round;stroke-linejoin:round;stroke-opacity:1"
           id="g25">
          <path
             style="fill:#ffffff;fill-opacity:1;fill-rule:evenodd;stroke:#ffffff;stroke-width:0;stroke-linecap:round;stroke-linejoin:round;stroke-opacity:1"
             d="m 178.65,100.75 v 1.7 h -1.7 v -1.7 z"
             id="path19" />
          <circle
             cx="177.8"
             cy="104.14"
             r="0.85000002"
             id="circle21" />
          <circle
             cx="177.8"
             cy="106.68"
             r="0.85000002"
             id="circle23" />
        </g>
        <g
           style="fill:#ffffff;fill-opacity:1;stroke:#ffffff;stroke-width:0;stroke-linecap:round;stroke-linejoin:round;stroke-opacity:1"
           id="g33">
          <path
             style="fill:#ffffff;fill-opacity:1;fill-rule:evenodd;stroke:#ffffff;stroke-width:0;stroke-linecap:round;stroke-linejoin:round;stroke-opacity:1"
             d="m 186.27,100.75 v 1.7 h -1.7 v -1.7 z"
             id="path27" />
          <circle
             cx="185.42"
             cy="104.14"
             r="0.85000002"
             id="circle29" />
          <circle
             cx="185.42"
             cy="106.68"
             r="0.85000002"
             id="circle31" />
        </g>
      </g>
    </mask>
    <mask
       id="pads-mask-silkscreen">
      <rect
         x="175.895"
         y="99.695"
         width="11.43"
         height="9.1586905"
         fill="#ffffff"
         id="rect38" />
      <g
         style="fill:#000000;fill-opacity:0;stroke:#000000;stroke-width:0;stroke-linecap:round;stroke-linejoin:round;stroke-opacity:1"
         id="g66">
        <g
           style="fill:#000000;fill-opacity:1;stroke:#000000;stroke-width:0;stroke-linecap:round;stroke-linejoin:round;stroke-opacity:1"
           id="g48">
          <path
             style="fill:#000000;fill-opacity:1;fill-rule:evenodd;stroke:#000000;stroke-width:0;stroke-linecap:round;stroke-linejoin:round;stroke-opacity:1"
             d="m 183.71,102.44 h -1 v -1.5 h 1 z"
             id="path40" />
          <path
             style="fill:#000000;fill-opacity:1;fill-rule:evenodd;stroke:#000000;stroke-width:0;stroke-linecap:round;stroke-linejoin:round;stroke-opacity:1"
             d="m 180.51,102.44 h -1 v -1.5 h 1 z"
             id="path42" />
          <path
             style="fill:#000000;fill-opacity:1;fill-rule:evenodd;stroke:#000000;stroke-width:0;stroke-linecap:round;stroke-linejoin:round;stroke-opacity:1"
             d="m 183.71,107.34 h -1 v -1.5 h 1 z"
             id="path44" />
          <path
             style="fill:#000000;fill-opacity:1;fill-rule:evenodd;stroke:#000000;stroke-width:0;stroke-linecap:round;stroke-linejoin:round;stroke-opacity:1"
             d="m 180.51,107.34 h -1 v -1.5 h 1 z"
             id="path46" />
        </g>
        <g
           style="fill:#000000;fill-opacity:1;stroke:#000000;stroke-width:0;stroke-linecap:round;stroke-linejoin:round;stroke-opacity:1"
           id="g56">
          <path
             style="fill:#000000;fill-opacity:1;fill-rule:evenodd;stroke:#000000;stroke-width:0;stroke-linecap:round;stroke-linejoin:round;stroke-opacity:1"
             d="m 178.65,100.75 v 1.7 h -1.7 v -1.7 z"
             id="path50" />
          <circle
             cx="177.8"
             cy="104.14"
             r="0.85000002"
             id="circle52" />
          <circle
             cx="177.8"
             cy="106.68"
             r="0.85000002"
             id="circle54" />
        </g>
        <g
           style="fill:#000000;fill-opacity:1;stroke:#000000;stroke-width:0;stroke-linecap:round;stroke-linejoin:round;stroke-opacity:1"
           id="g64">
          <path
             style="fill:#000000;fill-opacity:1;fill-rule:evenodd;stroke:#000000;stroke-width:0;stroke-linecap:round;stroke-linejoin:round;stroke-opacity:1"
             d="m 186.27,100.75 v 1.7 h -1.7 v -1.7 z"
             id="path58" />
          <circle
             cx="185.42"
             cy="104.14"
             r="0.85000002"
             id="circle60" />
          <circle
             cx="185.42"
             cy="106.68"
             r="0.85000002"
             id="circle62" />
        </g>
      </g>
    </mask>
    <mask
       id="hole-mask">
      <g
         id="g83">
        <rect
           x="175.895"
           y="99.695"
           fill="#ffffff"
           width="11.43"
           height="9.1586905"
           id="rect69" />
        <polyline
           stroke-linecap="round"
           stroke="#000000"
           stroke-width="1"
           points="-0.0 0 0.0 0"
           transform="rotate(180,88.9,50.8)"
           id="polyline71" />
        <polyline
           stroke-linecap="round"
           stroke="#000000"
           stroke-width="1"
           points="-0.0 0 0.0 0"
           transform="rotate(180,88.9,52.07)"
           id="polyline73" />
        <polyline
           stroke-linecap="round"
           stroke="#000000"
           stroke-width="1"
           points="-0.0 0 0.0 0"
           transform="rotate(180,88.9,53.34)"
           id="polyline75" />
        <polyline
           stroke-linecap="round"
           stroke="#000000"
           stroke-width="1"
           points="-0.0 0 0.0 0"
           transform="rotate(180,92.71,50.8)"
           id="polyline77" />
        <polyline
           stroke-linecap="round"
           stroke="#000000"
           stroke-width="1"
           points="-0.0 0 0.0 0"
           transform="rotate(180,92.71,52.07)"
           id="polyline79" />
        <polyline
           stroke-linecap="round"
           stroke="#000000"
           stroke-width="1"
           points="-0.0 0 0.0 0"
           transform="rotate(180,92.71,53.34)"
           id="polyline81" />
      </g>
    </mask>
    <clipPath
       clipPathUnits="userSpaceOnUse"
       id="clipath_lpe_path-effect6024">
      <ellipse
         style="display:none;fill:#000000;fill-opacity:1;stroke:none;stroke-width:2.54;stroke-linejoin:round;stroke-miterlimit:0"
         id="ellipse6030"
         cx="181.62601"
         cy="104.156"
         rx="1.5240067"
         ry="1.523998" />
    </clipPath>
    <mask
       maskUnits="userSpaceOnUse"
       id="mask-powermask-path-effect6028">
      <path
         id="path6035"
         style="fill:#ffffff;fill-opacity:1"
         d="m 178.594,101.12399 h 6.06401 V 107.188 H 178.594 Z" />
      <path
         style="display:inline;fill:#000000;fill-opacity:1;stroke:none;stroke-width:2.54;stroke-linejoin:round;stroke-miterlimit:0"
         d="m 179.34,106.442 4.318,-4.318 -0.254,-0.254 h -4.064 z"
         id="path6037"
         sodipodi:nodetypes="ccccc" />
    </mask>
    <clipPath
       clipPathUnits="userSpaceOnUse"
       id="clipPath7691">
      <path
         id="path7693"
         mask="none"
         style="display:inline;fill:#e5e5e5;fill-opacity:1;stroke-width:2.54;stroke-linejoin:round;stroke-miterlimit:0"
         d="m 183.15001,104.156 a 1.5240067,1.523998 0 0 1 -1.524,1.524 1.5240067,1.523998 0 0 1 -1.52401,-1.524 1.5240067,1.523998 0 0 1 1.52401,-1.524 1.5240067,1.523998 0 0 1 1.524,1.524 z" />
    </clipPath>
  </defs>
  <g
     id="boardContainer"
     transform="translate(4.572011,-0.76199707)">
    <g
       id="substrate"
       clip-path="url(#cut-off)"
       mask="url(#hole-mask)">
      <g
         id="substrate-board"
         style="fill:#4ca06c;stroke:#4ca06c">
        <path
           d="m 176.53,100.33 h 10.16 v 7.62 h -10.16 v -7.62"
           style="fill-rule:evenodd"
           id="path88" />
        <g
           style="fill-opacity:0;stroke-width:0.05;stroke-linecap:round;stroke-linejoin:round;stroke-opacity:1"
           id="g98">
          <path
             d="m 176.53,107.95 v -7.62"
             id="path90" />
          <path
             d="M 186.69,107.95 H 176.53"
             id="path92" />
          <path
             d="m 186.69,100.33 v 7.62"
             id="path94" />
          <path
             d="m 176.53,100.33 h 10.16"
             id="path96" />
        </g>
      </g>
      <g
         id="substrate-clad"
         style="fill:#9c6b28;stroke:#9c6b28">
        <g
           style="fill-opacity:0;stroke-width:0;stroke-linecap:round;stroke-linejoin:round;stroke-opacity:1"
           id="g127">
          <g
             style="fill-opacity:1;stroke-width:0;stroke-linecap:round;stroke-linejoin:round;stroke-opacity:1"
             id="g109">
            <path
               style="fill-opacity:1;fill-rule:evenodd;stroke-width:0;stroke-linecap:round;stroke-linejoin:round;stroke-opacity:1"
               d="m 183.71,102.44 h -1 v -1.5 h 1 z"
               id="path101" />
            <path
               style="fill-opacity:1;fill-rule:evenodd;stroke-width:0;stroke-linecap:round;stroke-linejoin:round;stroke-opacity:1"
               d="m 180.51,102.44 h -1 v -1.5 h 1 z"
               id="path103" />
            <path
               style="fill-opacity:1;fill-rule:evenodd;stroke-width:0;stroke-linecap:round;stroke-linejoin:round;stroke-opacity:1"
               d="m 183.71,107.34 h -1 v -1.5 h 1 z"
               id="path105" />
            <path
               style="fill-opacity:1;fill-rule:evenodd;stroke-width:0;stroke-linecap:round;stroke-linejoin:round;stroke-opacity:1"
               d="m 180.51,107.34 h -1 v -1.5 h 1 z"
               id="path107" />
          </g>
          <g
             style="fill-opacity:1;stroke-width:0;stroke-linecap:round;stroke-linejoin:round;stroke-opacity:1"
             id="g117">
            <path
               style="fill-opacity:1;fill-rule:evenodd;stroke-width:0;stroke-linecap:round;stroke-linejoin:round;stroke-opacity:1"
               d="m 178.65,100.75 v 1.7 h -1.7 v -1.7 z"
               id="path111" />
            <circle
               cx="177.8"
               cy="104.14"
               r="0.85000002"
               id="circle113" />
            <circle
               cx="177.8"
               cy="106.68"
               r="0.85000002"
               id="circle115" />
          </g>
          <g
             style="fill-opacity:1;stroke-width:0;stroke-linecap:round;stroke-linejoin:round;stroke-opacity:1"
             id="g125">
            <path
               style="fill-opacity:1;fill-rule:evenodd;stroke-width:0;stroke-linecap:round;stroke-linejoin:round;stroke-opacity:1"
               d="m 186.27,100.75 v 1.7 h -1.7 v -1.7 z"
               id="path119" />
            <circle
               cx="185.42"
               cy="104.14"
               r="0.85000002"
               id="circle121" />
            <circle
               cx="185.42"
               cy="106.68"
               r="0.85000002"
               id="circle123" />
          </g>
        </g>
      </g>
      <g
         id="substrate-copper"
         style="fill:#417e5a;stroke:#417e5a">
        <g
           style="fill-opacity:0;stroke-width:0;stroke-linecap:round;stroke-linejoin:round;stroke-opacity:1"
           id="g188">
          <g
             style="fill-opacity:1;stroke-width:0;stroke-linecap:round;stroke-linejoin:round;stroke-opacity:1"
             id="g138">
            <path
               style="fill-opacity:1;fill-rule:evenodd;stroke-width:0;stroke-linecap:round;stroke-linejoin:round;stroke-opacity:1"
               d="m 183.71,102.44 h -1 v -1.5 h 1 z"
               id="path130" />
            <path
               style="fill-opacity:1;fill-rule:evenodd;stroke-width:0;stroke-linecap:round;stroke-linejoin:round;stroke-opacity:1"
               d="m 180.51,102.44 h -1 v -1.5 h 1 z"
               id="path132" />
            <path
               style="fill-opacity:1;fill-rule:evenodd;stroke-width:0;stroke-linecap:round;stroke-linejoin:round;stroke-opacity:1"
               d="m 183.71,107.34 h -1 v -1.5 h 1 z"
               id="path134" />
            <path
               style="fill-opacity:1;fill-rule:evenodd;stroke-width:0;stroke-linecap:round;stroke-linejoin:round;stroke-opacity:1"
               d="m 180.51,107.34 h -1 v -1.5 h 1 z"
               id="path136" />
          </g>
          <g
             style="fill-opacity:1;stroke-width:0;stroke-linecap:round;stroke-linejoin:round;stroke-opacity:1"
             id="g146">
            <path
               style="fill-opacity:1;fill-rule:evenodd;stroke-width:0;stroke-linecap:round;stroke-linejoin:round;stroke-opacity:1"
               d="m 178.65,100.75 v 1.7 h -1.7 v -1.7 z"
               id="path140" />
            <circle
               cx="177.8"
               cy="104.14"
               r="0.85000002"
               id="circle142" />
            <circle
               cx="177.8"
               cy="106.68"
               r="0.85000002"
               id="circle144" />
          </g>
          <g
             style="fill-opacity:1;stroke-width:0;stroke-linecap:round;stroke-linejoin:round;stroke-opacity:1"
             id="g154">
            <path
               style="fill-opacity:1;fill-rule:evenodd;stroke-width:0;stroke-linecap:round;stroke-linejoin:round;stroke-opacity:1"
               d="m 186.27,100.75 v 1.7 h -1.7 v -1.7 z"
               id="path148" />
            <circle
               cx="185.42"
               cy="104.14"
               r="0.85000002"
               id="circle150" />
            <circle
               cx="185.42"
               cy="106.68"
               r="0.85000002"
               id="circle152" />
          </g>
          <g
             style="fill-opacity:0;stroke-width:1;stroke-linecap:round;stroke-linejoin:round;stroke-opacity:1"
             id="g178">
            <path
               d="m 183.91,104.14 h 1.51"
               id="path156" />
            <path
               d="m 183.21,104.84 0.7,-0.7"
               id="path158" />
            <path
               d="m 183.21,106.59 v -1.75"
               id="path160" />
            <path
               d="M 180.01,103.13208 V 101.69"
               id="path162" />
            <path
               d="M 179.00208,104.14 180.01,103.13208"
               id="path164" />
            <path
               d="m 177.8,104.14 h 1.20208"
               id="path166" />
            <path
               d="m 183.3,101.6 -0.09,0.09"
               id="path168" />
            <path
               d="m 185.33,101.69 0.09,-0.09"
               id="path170" />
            <path
               d="m 183.21,101.69 h 2.12"
               id="path172" />
            <path
               d="m 179.92,106.68 0.09,-0.09"
               id="path174" />
            <path
               d="m 177.8,106.68 h 2.12"
               id="path176" />
          </g>
          <g
             style="fill-opacity:0;stroke-width:1;stroke-linecap:round;stroke-linejoin:round;stroke-opacity:1"
             id="g186">
            <g
               style="fill-opacity:1;stroke-width:0;stroke-linecap:round;stroke-linejoin:round;stroke-opacity:1"
               id="g184">
              <path
                 style="fill-opacity:1;fill-rule:evenodd;stroke-width:0;stroke-linecap:round;stroke-linejoin:round;stroke-opacity:1"
                 d="m 182.075,101.40425 0.15875,0.15875 h 0.84925 v -0.02 h 0.254 v 0.02 h 0.84925 l 0.09,-0.09 h 1.01675 v -0.02 h 0.254 v 0.02 h 0.02 v 0.254 h -0.02 v 0.02 h -0.254 v -0.02 h -1.19925 l -0.09,0.09 H 183.337 v 1.09925 l 0.15875,0.15875 0.0145,2.1e-4 -0.0367,0.0111 -0.19717,0.1054 -0.17283,0.14183 -0.0356,0.0433 -0.62114,0.62115 -0.0433,0.0355 -0.14183,0.17283 -0.0354,0.0662 -0.07,0.13098 -0.0649,0.21395 -0.0219,0.2225 0.005,0.0558 v 0.91306 l -0.003,0.0312 v 1.45 h -0.92386 v -0.67545 l 0.002,-0.0245 -0.002,-0.0246 V 105.84 l -0.0123,-0.12448 -0.0363,-0.1197 -0.059,-0.11031 -0.0794,-0.0967 -0.0967,-0.0794 -0.11031,-0.059 -0.1197,-0.0363 -0.12448,-0.0123 h -1 l -0.12448,0.0123 -0.1197,0.0363 -0.11031,0.059 -0.0967,0.0794 -0.0794,0.0967 -0.0318,0.0595 h -0.18255 l -0.0185,-0.0185 -0.17439,-0.11652 0.17439,-0.11652 0.0185,-0.0185 h 0.18122 l 0.0558,0.005 0.0557,-0.005 v 0 l 0.16675,-0.0164 0.21395,-0.0649 0.19717,-0.1054 0.17283,-0.14183 0.0356,-0.0433 0.92906,-0.92907 0.0433,-0.0355 0.0384,-0.0468 0.10341,-0.12602 0.1054,-0.19717 0.0649,-0.21395 0.0219,-0.2225 -0.005,-0.0558 v -0.60514 l 0.003,-0.0312 h 0.92386 l 0.0123,0.12448 0.0363,0.1197 0.059,0.11031 0.0794,0.0967 0.0967,0.0794 0.11031,0.059 0.1197,0.0363 0.12448,0.0123 0.21425,-0.003 0.15875,-0.15875 V 101.817 h -0.84925 l -0.15875,0.15875 -0.003,0.46425 h -0.92386 v -1.45 h 0.92419 z"
                 id="path180" />
              <path
                 style="fill-opacity:1;fill-rule:evenodd;stroke-width:0;stroke-linecap:round;stroke-linejoin:round;stroke-opacity:1"
                 d="m 177.927,101.473 h 0.02 v 0.254 h -0.02 v 0.02 h -0.254 v -0.02 h -0.02 v -0.254 h 0.02 v -0.02 h 0.254 z"
                 id="path182" />
            </g>
          </g>
        </g>
      </g>
      <g
         id="substrate-pads"
         style="fill:#b5ae30;stroke:#b5ae30"
         mask="url(#pads-mask)">
        <g
           style="fill-opacity:0;stroke-width:0;stroke-linecap:round;stroke-linejoin:round;stroke-opacity:1"
           id="g249">
          <g
             style="fill-opacity:1;stroke-width:0;stroke-linecap:round;stroke-linejoin:round;stroke-opacity:1"
             id="g199">
            <path
               style="fill-opacity:1;fill-rule:evenodd;stroke-width:0;stroke-linecap:round;stroke-linejoin:round;stroke-opacity:1"
               d="m 183.71,102.44 h -1 v -1.5 h 1 z"
               id="path191" />
            <path
               style="fill-opacity:1;fill-rule:evenodd;stroke-width:0;stroke-linecap:round;stroke-linejoin:round;stroke-opacity:1"
               d="m 180.51,102.44 h -1 v -1.5 h 1 z"
               id="path193" />
            <path
               style="fill-opacity:1;fill-rule:evenodd;stroke-width:0;stroke-linecap:round;stroke-linejoin:round;stroke-opacity:1"
               d="m 183.71,107.34 h -1 v -1.5 h 1 z"
               id="path195" />
            <path
               style="fill-opacity:1;fill-rule:evenodd;stroke-width:0;stroke-linecap:round;stroke-linejoin:round;stroke-opacity:1"
               d="m 180.51,107.34 h -1 v -1.5 h 1 z"
               id="path197" />
          </g>
          <g
             style="fill-opacity:1;stroke-width:0;stroke-linecap:round;stroke-linejoin:round;stroke-opacity:1"
             id="g207">
            <path
               style="fill-opacity:1;fill-rule:evenodd;stroke-width:0;stroke-linecap:round;stroke-linejoin:round;stroke-opacity:1"
               d="m 178.65,100.75 v 1.7 h -1.7 v -1.7 z"
               id="path201" />
            <circle
               cx="177.8"
               cy="104.14"
               r="0.85000002"
               id="circle203" />
            <circle
               cx="177.8"
               cy="106.68"
               r="0.85000002"
               id="circle205" />
          </g>
          <g
             style="fill-opacity:1;stroke-width:0;stroke-linecap:round;stroke-linejoin:round;stroke-opacity:1"
             id="g215">
            <path
               style="fill-opacity:1;fill-rule:evenodd;stroke-width:0;stroke-linecap:round;stroke-linejoin:round;stroke-opacity:1"
               d="m 186.27,100.75 v 1.7 h -1.7 v -1.7 z"
               id="path209" />
            <circle
               cx="185.42"
               cy="104.14"
               r="0.85000002"
               id="circle211" />
            <circle
               cx="185.42"
               cy="106.68"
               r="0.85000002"
               id="circle213" />
          </g>
          <g
             style="fill-opacity:0;stroke-width:1;stroke-linecap:round;stroke-linejoin:round;stroke-opacity:1"
             id="g239">
            <path
               d="m 183.91,104.14 h 1.51"
               id="path217" />
            <path
               d="m 183.21,104.84 0.7,-0.7"
               id="path219" />
            <path
               d="m 183.21,106.59 v -1.75"
               id="path221" />
            <path
               d="M 180.01,103.13208 V 101.69"
               id="path223" />
            <path
               d="M 179.00208,104.14 180.01,103.13208"
               id="path225" />
            <path
               d="m 177.8,104.14 h 1.20208"
               id="path227" />
            <path
               d="m 183.3,101.6 -0.09,0.09"
               id="path229" />
            <path
               d="m 185.33,101.69 0.09,-0.09"
               id="path231" />
            <path
               d="m 183.21,101.69 h 2.12"
               id="path233" />
            <path
               d="m 179.92,106.68 0.09,-0.09"
               id="path235" />
            <path
               d="m 177.8,106.68 h 2.12"
               id="path237" />
          </g>
          <g
             style="fill-opacity:0;stroke-width:1;stroke-linecap:round;stroke-linejoin:round;stroke-opacity:1"
             id="g247">
            <g
               style="fill-opacity:1;stroke-width:0;stroke-linecap:round;stroke-linejoin:round;stroke-opacity:1"
               id="g245">
              <path
                 style="fill-opacity:1;fill-rule:evenodd;stroke-width:0;stroke-linecap:round;stroke-linejoin:round;stroke-opacity:1"
                 d="m 182.075,101.40425 0.15875,0.15875 h 0.84925 v -0.02 h 0.254 v 0.02 h 0.84925 l 0.09,-0.09 h 1.01675 v -0.02 h 0.254 v 0.02 h 0.02 v 0.254 h -0.02 v 0.02 h -0.254 v -0.02 h -1.19925 l -0.09,0.09 H 183.337 v 1.09925 l 0.15875,0.15875 0.0145,2.1e-4 -0.0367,0.0111 -0.19717,0.1054 -0.17283,0.14183 -0.0356,0.0433 -0.62114,0.62115 -0.0433,0.0355 -0.14183,0.17283 -0.0354,0.0662 -0.07,0.13098 -0.0649,0.21395 -0.0219,0.2225 0.005,0.0558 v 0.91306 l -0.003,0.0312 v 1.45 h -0.92386 v -0.67545 l 0.002,-0.0245 -0.002,-0.0246 V 105.84 l -0.0123,-0.12448 -0.0363,-0.1197 -0.059,-0.11031 -0.0794,-0.0967 -0.0967,-0.0794 -0.11031,-0.059 -0.1197,-0.0363 -0.12448,-0.0123 h -1 l -0.12448,0.0123 -0.1197,0.0363 -0.11031,0.059 -0.0967,0.0794 -0.0794,0.0967 -0.0318,0.0595 h -0.18255 l -0.0185,-0.0185 -0.17439,-0.11652 0.17439,-0.11652 0.0185,-0.0185 h 0.18122 l 0.0558,0.005 0.0557,-0.005 v 0 l 0.16675,-0.0164 0.21395,-0.0649 0.19717,-0.1054 0.17283,-0.14183 0.0356,-0.0433 0.92906,-0.92907 0.0433,-0.0355 0.0384,-0.0468 0.10341,-0.12602 0.1054,-0.19717 0.0649,-0.21395 0.0219,-0.2225 -0.005,-0.0558 v -0.60514 l 0.003,-0.0312 h 0.92386 l 0.0123,0.12448 0.0363,0.1197 0.059,0.11031 0.0794,0.0967 0.0967,0.0794 0.11031,0.059 0.1197,0.0363 0.12448,0.0123 0.21425,-0.003 0.15875,-0.15875 V 101.817 h -0.84925 l -0.15875,0.15875 -0.003,0.46425 h -0.92386 v -1.45 h 0.92419 z"
                 id="path241" />
              <path
                 style="fill-opacity:1;fill-rule:evenodd;stroke-width:0;stroke-linecap:round;stroke-linejoin:round;stroke-opacity:1"
                 d="m 177.927,101.473 h 0.02 v 0.254 h -0.02 v 0.02 h -0.254 v -0.02 h -0.02 v -0.254 h 0.02 v -0.02 h 0.254 z"
                 id="path243" />
            </g>
          </g>
        </g>
      </g>
      <g
         id="substrate-silk"
         style="fill:#f0f0f0;stroke:#f0f0f0"
         mask="url(#pads-mask-silkscreen)">
        <g
           style="fill-opacity:0;stroke-width:0.12;stroke-linecap:round;stroke-linejoin:round;stroke-opacity:1"
           id="g258">
          <path
             d="m 178.86,107.79 v -7.3"
             id="path252" />
          <path
             d="m 184.36,107.79 v -7.3"
             id="path254" />
          <path
             d="m 184.36,100.49 h -1.15"
             id="path256" />
        </g>
      </g>
      <g
         id="substrate-outline"
         style="fill:#000000;stroke:#000000;stroke-width:0.15">
        <g
           style="fill-opacity:0;stroke-linecap:round;stroke-linejoin:round;stroke-opacity:1"
           id="g269">
          <path
             d="m 176.53,107.95 v -7.62"
             id="path261" />
          <path
             d="M 186.69,107.95 H 176.53"
             id="path263" />
          <path
             d="m 186.69,100.33 v 7.62"
             id="path265" />
          <path
             d="m 176.53,100.33 h 10.16"
             id="path267" />
        </g>
        <path
           d="m -0.5,0 a 0.5,0.5 0 1 1 1,0 v 0 a 0.5,0.5 0 1 1 -1,0 z"
           transform="rotate(180,88.9,50.8)"
           id="path271" />
        <path
           d="m -0.5,0 a 0.5,0.5 0 1 1 1,0 v 0 a 0.5,0.5 0 1 1 -1,0 z"
           transform="rotate(180,88.9,52.07)"
           id="path273" />
        <path
           d="m -0.5,0 a 0.5,0.5 0 1 1 1,0 v 0 a 0.5,0.5 0 1 1 -1,0 z"
           transform="rotate(180,88.9,53.34)"
           id="path275" />
        <path
           d="m -0.5,0 a 0.5,0.5 0 1 1 1,0 v 0 a 0.5,0.5 0 1 1 -1,0 z"
           transform="rotate(180,92.71,50.8)"
           id="path277" />
        <path
           d="m -0.5,0 a 0.5,0.5 0 1 1 1,0 v 0 a 0.5,0.5 0 1 1 -1,0 z"
           transform="rotate(180,92.71,52.07)"
           id="path279" />
        <path
           d="m -0.5,0 a 0.5,0.5 0 1 1 1,0 v 0 a 0.5,0.5 0 1 1 -1,0 z"
           transform="rotate(180,92.71,53.34)"
           id="path281" />
      </g>
    </g>
  </g>
  <metadata
     id="metadata569">
    <rdf:RDF>
      <cc:Work
         rdf:about="">
        <dc:title>Picture generated by PcbDraw </dc:title>
      </cc:Work>
    </rdf:RDF>
  </metadata>
  <g
     id="g14539"
     inkscape:label="chip"
     transform="translate(4.572011,-0.76199707)">
    <path
       style="fill:#808080;fill-opacity:1;stroke-width:0.127;stroke-linecap:round;stroke-linejoin:round;stroke-miterlimit:0"
       d="m 184.29301,106.315 v -5.842 h 0.635 l 0,0.635 h 2.54 l 0,-0.635 h 0.635 l 0,5.842 h -0.635 l 0,-0.635 h -2.54 l 0,0.635 z"
       id="path480"
       sodipodi:nodetypes="ccccccccccccc"
       transform="translate(-4.5720104,0.76199772)" />
    <rect
       style="fill:#f2f2f2;fill-opacity:1;stroke:none;stroke-width:2.54;stroke-linejoin:round;stroke-miterlimit:0"
       id="rect575"
       width="5.0800023"
       height="5.0800033"
       x="179.086"
       y="101.616" />
    <path
       style="display:inline;fill:#bfbfbf;fill-opacity:1;stroke:none;stroke-width:2.54;stroke-linejoin:round;stroke-miterlimit:0"
       d="m 183.404,101.616 0.762,0.762 v -0.762 z"
       id="path2064"
       sodipodi:nodetypes="cccc" />
    <path
       style="display:inline;fill:#000000;fill-opacity:0.2;stroke:none;stroke-width:2.54;stroke-linejoin:round;stroke-miterlimit:0"
       d="m 179.086,106.696 0.508,0.508 h 5.08 v -4.318 l -0.254,-0.254 v -0.762 l -0.254,-0.254 v 5.08 z"
       id="path3573"
       sodipodi:nodetypes="ccccccccc" />
    <ellipse
       style="display:inline;fill:#bebebe;fill-opacity:1;stroke:none;stroke-width:2.54;stroke-linejoin:round;stroke-miterlimit:0"
       id="path3571"
       clip-path="none"
       mask="none"
       inkscape:label="path3571"
       cx="181.62601"
       cy="104.156"
       rx="2.0320067"
       ry="2.0320034" />
    <path
       id="ellipse5988"
       mask="none"
       style="display:inline;fill:#e5e5e5;fill-opacity:1;stroke-width:2.54;stroke-linejoin:round;stroke-miterlimit:0"
       d="m 183.15001,104.156 a 1.5240067,1.523998 0 0 1 -1.524,1.524 1.5240067,1.523998 0 0 1 -1.52401,-1.524 1.5240067,1.523998 0 0 1 1.52401,-1.524 1.5240067,1.523998 0 0 1 1.524,1.524 z" />
    <path
       style="fill:#f1f1f1;fill-opacity:1;stroke:none;stroke-width:2.54;stroke-linejoin:round;stroke-miterlimit:0"
       d="m 181.626,106.188 v -1.778 h -2.286 v -0.254 h 1.524 v -2.032 h 0.254 v 2.032 h 0.762 l 0.762,-0.762 h 1.016 v 0.254 h -1.016 l -0.762,0.762 v 1.778 z"
       id="path7525"
       sodipodi:nodetypes="cccccccccccccccc"
       clip-path="url(#clipPath7691)" />
    <path
       style="fill:#4d4d4d;fill-opacity:1;stroke:none;stroke-width:0.381;stroke-linecap:square;stroke-linejoin:round;stroke-miterlimit:0;stroke-dasharray:none;stroke-opacity:1"
       d="m 181.118,104.156 v -0.508 h 0.635 v 0.508 z"
       id="path7749"
       sodipodi:nodetypes="ccccc"
       inkscape:label="path7749" />
  </g>
  <g
     id="g20842"
     inkscape:label="l"
     transform="translate(5.3340111,-0.76199707)">
    <g
       id="g15469"
       inkscape:label="5v label"
       transform="translate(-17.018001)">
      <rect
         style="fill:#e51a1a;fill-opacity:1;stroke:none;stroke-width:0.381;stroke-linecap:square;stroke-linejoin:round;stroke-miterlimit:0;stroke-dasharray:none;stroke-opacity:1"
         id="rect15463"
         width="5.0799999"
         height="1.524"
         x="187.468"
         y="105.934"
         rx="0.76200002"
         ry="0.76200002" />
      <text
         xml:space="preserve"
         style="font-weight:bold;font-size:1.27px;font-family:'IBM Plex Mono';-inkscape-font-specification:'IBM Plex Mono Bold';fill:#ffffff;fill-opacity:1;stroke:none;stroke-width:0.381;stroke-linecap:square;stroke-linejoin:round;stroke-miterlimit:0;stroke-dasharray:none;stroke-opacity:1"
         x="188.86436"
         y="107.13923"
         id="text15467"><tspan
           sodipodi:role="line"
           id="tspan15465"
           style="font-size:1.27px;fill:#ffffff;fill-opacity:1;stroke-width:0.381"
           x="188.86436"
           y="107.13923">+5V</tspan></text>
    </g>
    <g
       id="g14425"
       inkscape:label="ground lbel"
       transform="translate(-0.76200673)">
      <rect
         style="fill:#000000;fill-opacity:1;stroke:none;stroke-width:0.381;stroke-linecap:square;stroke-linejoin:round;stroke-miterlimit:0;stroke-dasharray:none;stroke-opacity:1"
         id="rect12962"
         width="5.0799999"
         height="1.524"
         x="171.21201"
         y="100.854"
         rx="0.76200002"
         ry="0.76200002" />
      <text
         xml:space="preserve"
         style="font-weight:bold;font-size:1.27px;font-family:'IBM Plex Mono';-inkscape-font-specification:'IBM Plex Mono Bold';fill:#ffffff;fill-opacity:1;stroke:none;stroke-width:0.381;stroke-linecap:square;stroke-linejoin:round;stroke-miterlimit:0;stroke-dasharray:none;stroke-opacity:1"
         x="172.60837"
         y="102.05923"
         id="text13390"><tspan
           sodipodi:role="line"
           id="tspan13388"
           style="font-size:1.27px;fill:#ffffff;fill-opacity:1;stroke-width:0.381"
           x="172.60837"
           y="102.05923">GND</tspan></text>
    </g>
    <g
       id="g15477"
       inkscape:label="dlabel"
       transform="translate(-17.018002,-2.539995)">
      <path
         id="rect15471"
         style="fill:#193ce5;stroke-width:0.254;stroke-linecap:square;stroke-linejoin:round;stroke-miterlimit:0"
         d="m 188.23,105.934 h 3.556 l 0.762,0.762 c 0,0 -0.762,0.76199 -0.762,0.762 h -3.556 c -0.42215,0 -0.762,-0.33985 -0.762,-0.762 0,-0.42215 0.33985,-0.762 0.762,-0.762 z"
         sodipodi:nodetypes="scccsss" />
      <text
         xml:space="preserve"
         style="font-weight:bold;font-size:1.27px;font-family:'IBM Plex Mono';-inkscape-font-specification:'IBM Plex Mono Bold';fill:#ffffff;fill-opacity:1;stroke:none;stroke-width:0.381;stroke-linecap:square;stroke-linejoin:round;stroke-miterlimit:0;stroke-dasharray:none;stroke-opacity:1"
         x="188.86436"
         y="107.13923"
         id="text15475"><tspan
           sodipodi:role="line"
           id="tspan15473"
           style="font-size:1.27px;fill:#ffffff;fill-opacity:1;stroke-width:0.381"
           x="188.86436"
           y="107.13923">DIN</tspan></text>
    </g>
  </g>
  <g
     id="g20828"
     inkscape:label="r"
     transform="translate(3.8100106,-0.76199707)">
    <g
       id="g17039"
       inkscape:label="dlabel"
       transform="translate(0.25399897,-2.5399959)">
      <path
         id="rect17033"
         style="fill:#193ce5;stroke-width:0.254;stroke-linecap:square;stroke-linejoin:round;stroke-miterlimit:0"
         d="m 188.23,105.934 h 3.556 l 0.762,0.762 c 0,-1e-5 -0.762,0.76199 -0.762,0.762 h -3.556 c -0.42215,0 -0.762,-0.33985 -0.762,-0.762 0,-0.42215 0.33985,-0.762 0.762,-0.762 z"
         sodipodi:nodetypes="scccsss" />
      <text
         xml:space="preserve"
         style="font-weight:bold;font-size:1.27px;font-family:'IBM Plex Mono';-inkscape-font-specification:'IBM Plex Mono Bold';fill:#ffffff;fill-opacity:1;stroke:none;stroke-width:0.381;stroke-linecap:square;stroke-linejoin:round;stroke-miterlimit:0;stroke-dasharray:none;stroke-opacity:1"
         x="188.4586"
         y="107.13923"
         id="text17037"><tspan
           sodipodi:role="line"
           id="tspan17035"
           style="font-size:1.27px;fill:#ffffff;fill-opacity:1;stroke-width:0.381"
           x="188.4586"
           y="107.13923">DOUT</tspan></text>
    </g>
    <g
       id="g14549"
       inkscape:label="ground lbel"
       transform="translate(16.509995)">
      <rect
         style="fill:#000000;fill-opacity:1;stroke:none;stroke-width:0.381;stroke-linecap:square;stroke-linejoin:round;stroke-miterlimit:0;stroke-dasharray:none;stroke-opacity:1"
         id="rect14543"
         width="5.0799999"
         height="1.524"
         x="171.21201"
         y="100.854"
         rx="0.76200002"
         ry="0.76200002" />
      <text
         xml:space="preserve"
         style="font-weight:bold;font-size:1.27px;font-family:'IBM Plex Mono';-inkscape-font-specification:'IBM Plex Mono Bold';fill:#ffffff;fill-opacity:1;stroke:none;stroke-width:0.381;stroke-linecap:square;stroke-linejoin:round;stroke-miterlimit:0;stroke-dasharray:none;stroke-opacity:1"
         x="172.60837"
         y="102.05923"
         id="text14547"><tspan
           sodipodi:role="line"
           id="tspan14545"
           style="font-size:1.27px;fill:#ffffff;fill-opacity:1;stroke-width:0.381"
           x="172.60837"
           y="102.05923">GND</tspan></text>
    </g>
    <g
       id="g15461"
       inkscape:label="5v label"
       transform="translate(0.25400034)">
      <rect
         style="fill:#e51a1a;fill-opacity:1;stroke:none;stroke-width:0.381;stroke-linecap:square;stroke-linejoin:round;stroke-miterlimit:0;stroke-dasharray:none;stroke-opacity:1"
         id="rect12962-5"
         width="5.0799999"
         height="1.524"
         x="187.468"
         y="105.934"
         rx="0.76200002"
         ry="0.76200002" />
      <text
         xml:space="preserve"
         style="font-weight:bold;font-size:1.27px;font-family:'IBM Plex Mono';-inkscape-font-specification:'IBM Plex Mono Bold';fill:#ffffff;fill-opacity:1;stroke:none;stroke-width:0.381;stroke-linecap:square;stroke-linejoin:round;stroke-miterlimit:0;stroke-dasharray:none;stroke-opacity:1"
         x="188.86436"
         y="107.13923"
         id="text13390-3"><tspan
           sodipodi:role="line"
           id="tspan13388-5"
           style="font-size:1.27px;fill:#ffffff;fill-opacity:1;stroke-width:0.381"
           x="188.86436"
           y="107.13923">+5V</tspan></text>
    </g>
  </g>
</svg>
